<svg xmlns="http://www.w3.org/2000/svg" viewBox="0 0 173.42 27.36"><defs><style>.cls-1{fill:#617473;}.cls-2{fill:#77b983;}</style></defs><g id="Layer_2" data-name="Layer 2"><g id="Layer_1-2" data-name="Layer 1"><path class="cls-1" d="M16.16,17.85a.62.62,0,0,0-1.23,0A2,2,0,0,1,13,19.79a.61.61,0,0,0-.61.62A.61.61,0,0,0,13,21,2,2,0,0,1,14.93,23a.61.61,0,0,0,1.22,0,3.2,3.2,0,0,0-1.33-2.56A3.26,3.26,0,0,0,16.16,17.85Z"/><path class="cls-1" d="M19.84,7.73a7.73,7.73,0,0,0-15.46,0V25.38L1.75,22.9l1.51-1.51a.6.6,0,0,0,0-.86L1.6,18.87l1.52-1.52a.58.58,0,0,0,.18-.43.6.6,0,0,0-.18-.43L1.46,14.83,3,13.31a.61.61,0,1,0-.86-.86l-1.95,2a.56.56,0,0,0-.18.42.57.57,0,0,0,.18.43l1.66,1.66L.31,18.45a.61.61,0,0,0,0,.85L2,21,.45,22.49a.62.62,0,0,0-.18.43.71.71,0,0,0,.19.44l4.08,3.83a.58.58,0,0,0,.41.17H11.2a.61.61,0,0,0,.61-.61.61.61,0,0,0-.61-.61H9.33a1.89,1.89,0,0,1,1.84-1.36.61.61,0,1,0-.06-1.21,3.12,3.12,0,0,0-3,2.57H5.59V7.73a6.52,6.52,0,0,1,13,0v4.55H8.5a.61.61,0,0,0-.53.31l0,.06v0l0,.08h0a2.22,2.22,0,0,0,0,.45,2.39,2.39,0,0,0,4.19,1.59,2.39,2.39,0,0,0,3.59,0,2.39,2.39,0,0,0,4.19-1.59,1.77,1.77,0,0,0,0-.23s0-.07,0-.11Zm-9.57,6.68a1.19,1.19,0,0,1-1.16-.92h2.31A1.19,1.19,0,0,1,10.27,14.41Zm3.58,0a1.19,1.19,0,0,1-1.15-.92H15A1.21,1.21,0,0,1,13.85,14.41Zm3.59,0a1.21,1.21,0,0,1-1.16-.92h2.31A1.19,1.19,0,0,1,17.44,14.41Z"/><circle class="cls-1" cx="15.64" cy="9.74" r="0.74"/><path class="cls-2" d="M32.4,24.19V17.37c0-.91-.48-1.2-1-1.2h-1v8H28.48V5.54H32a2.35,2.35,0,0,1,2.35,2.34v5.76s.08,1.46-.7,1.65c.75.37.7,1.76.7,1.76v7.14Zm-1-9.83c.51,0,1-.21,1-1.07v-5a.9.9,0,0,0-1-1h-1v7Z"/><path class="cls-2" d="M50.65,22.3c-.21.48-.53,1.22-.61,1.38a1.1,1.1,0,0,1-1,.51H44.74V6.07a.57.57,0,0,1,.58-.53h5l-.63,1.39a1,1,0,0,1-1,.53H47.11a.43.43,0,0,0-.46.45v5.54h2.88c-.21.48-.53,1.25-.61,1.41a1,1,0,0,1-1,.51h-.8a.47.47,0,0,0-.46.45V22.3Z"/><path class="cls-2" d="M61.12,24.19H58.91l3-9.89-2.5-8.76h1.49a.75.75,0,0,1,.74.64l1.36,5,1.28-5A.77.77,0,0,1,65,5.54h1.49l-2.4,8.79,2.77,9.86H64.77L63,17.42Z"/><path class="cls-1" d="M81.32,22A2.39,2.39,0,0,1,79,24.38H77.86A2.39,2.39,0,0,1,75.46,22V7.72a2.39,2.39,0,0,1,2.4-2.37H79a2.37,2.37,0,0,1,2.29,2.37v2.86a1,1,0,0,1-.5,1l-1.39.64V8a1,1,0,0,0-2.05,0V21.66a1,1,0,1,0,2.05,0V19.15a1.1,1.1,0,0,1,.51-1l1.38-.61Z"/><path class="cls-1" d="M96.22,5.54a.72.72,0,0,1,.77.75v17.9H95.07V16.06a.45.45,0,0,0-.45-.42H92.54v8.55H90.62V6.29a.72.72,0,0,1,.78-.75h1.14v7.54c0,.53.21.67.67.67h1.86V5.54Z"/><path class="cls-1" d="M112.5,24.19h-2.11l-1.67-12.84L107,24.19h-2.11l2.83-18.65h1c.79,0,.93.51,1,1Z"/><path class="cls-1" d="M127.24,24.19h-.88a1.25,1.25,0,0,1-1.28-1.2l-2-9.22V24.19h-1.92V5.54H122c1.06,0,1.25.51,1.36,1l2,9.7V5.54h1.92Z"/><path class="cls-1" d="M142.56,10.63a1,1,0,0,1-.54,1c-.13.08-.87.42-1.38.64V8a1,1,0,0,0-2,0V21.68a1,1,0,1,0,2,0V16.12h-.08c-.43,0-.69-.62-.69-.62l-.64-1.33h2.39c.59,0,.94.32.94,1V22a2.41,2.41,0,0,1-2.32,2.38h-1.17A2.38,2.38,0,0,1,136.7,22V7.72a2.38,2.38,0,0,1,2.37-2.37h1.17a2.41,2.41,0,0,1,2.32,2.37Z"/><path class="cls-1" d="M158.84,22.3c-.21.48-.53,1.22-.61,1.38a1.1,1.1,0,0,1-1,.51h-4.27V6.07a.59.59,0,0,1,.59-.53h5l-.64,1.39a1,1,0,0,1-1,.53H155.3a.43.43,0,0,0-.46.45v5.54h2.88c-.21.48-.53,1.25-.61,1.41a1.05,1.05,0,0,1-1,.51h-.79a.47.47,0,0,0-.46.45V22.3Z"/><path class="cls-1" d="M171.5,24.19V17.37c0-.91-.48-1.2-1-1.2h-1v8h-1.92V5.54h3.49a2.34,2.34,0,0,1,2.34,2.34v5.76s.08,1.46-.69,1.65c.75.37.69,1.76.69,1.76v7.14Zm-1-9.83c.51,0,1-.21,1-1.07v-5a.9.9,0,0,0-1-1h-1v7Z"/></g></g></svg>