<svg xmlns="http://www.w3.org/2000/svg" viewBox="0 0 85.29 117.6"><defs><style>.cls-1{fill:#77b983;}</style></defs><g id="Layer_2" data-name="Layer 2"><g id="Layer_1-2" data-name="Layer 1"><path class="cls-1" d="M69.46,76.73c.09-3.4-5.19-3.4-5.28,0a8.48,8.48,0,0,1-8.36,8.36,2.65,2.65,0,1,0,0,5.29,8.48,8.48,0,0,1,8.35,8.36c.1,3.39,5.37,3.4,5.28,0a13.9,13.9,0,0,0-5.72-11A13.9,13.9,0,0,0,69.46,76.73Z"/><path class="cls-1" d="M85.29,33.23a33.23,33.23,0,0,0-66.46,0v75.86L7.53,98.45,14,92a2.61,2.61,0,0,0,0-3.68L6.88,81.14l6.55-6.55a2.61,2.61,0,0,0,0-3.68L6.29,63.77l6.55-6.54a2.61,2.61,0,1,0-3.69-3.69L.76,61.93a2.62,2.62,0,0,0,0,3.69L7.9,72.75,1.35,79.3a2.6,2.6,0,0,0,0,3.68l7.14,7.14L1.94,96.67a2.57,2.57,0,0,0-.76,1.88A2.6,2.6,0,0,0,2,100.41l17.51,16.48a2.58,2.58,0,0,0,1.79.71H48.15a2.61,2.61,0,1,0,0-5.21h-8A8.07,8.07,0,0,1,48,106.54a2.61,2.61,0,0,0-.22-5.21c-8.63.37-12.12,6.63-13.05,11.06H24V33.23a28,28,0,1,1,56,0V52.78H36.55a2.59,2.59,0,0,0-2.27,1.36,1.79,1.79,0,0,0-.12.24.56.56,0,0,0,0,.12,2.78,2.78,0,0,0-.12.38h0a10.3,10.3,0,0,0,17.84,8.77,10.26,10.26,0,0,0,15.42,0,10.3,10.3,0,0,0,18-6.83c0-.33,0-.66-.05-1a2.42,2.42,0,0,0,.05-.47ZM44.13,61.93a5.09,5.09,0,0,1-5-3.94H49.1A5.1,5.1,0,0,1,44.13,61.93Zm15.42,0a5.1,5.1,0,0,1-5-3.94h9.93A5.1,5.1,0,0,1,59.55,61.93Zm15.43,0A5.1,5.1,0,0,1,70,58h9.93A5.1,5.1,0,0,1,75,61.93Z"/><circle class="cls-1" cx="67.24" cy="41.86" r="3.17" transform="translate(-7.82 16.57) rotate(-13.28)"/></g></g></svg>