<svg xmlns="http://www.w3.org/2000/svg" viewBox="0 0 195.33 170.28"><defs><style>.cls-1{fill:#77b983;}.cls-2{fill:#617473;}</style></defs><g id="Layer_2" data-name="Layer 2"><g id="Layer_1-2" data-name="Layer 1"><path class="cls-1" d="M124.17,76.73c.09-3.4-5.19-3.4-5.28,0a8.47,8.47,0,0,1-8.36,8.36,2.65,2.65,0,1,0,0,5.29,8.49,8.49,0,0,1,8.36,8.36c.09,3.39,5.37,3.4,5.27,0a13.9,13.9,0,0,0-5.72-11A13.9,13.9,0,0,0,124.17,76.73Z"/><path class="cls-1" d="M140,33.23a33.23,33.23,0,0,0-66.46,0v75.86L62.24,98.45,68.73,92a2.6,2.6,0,0,0,0-3.68l-7.14-7.14,6.55-6.55a2.61,2.61,0,0,0,0-3.68L61,63.77l6.55-6.54a2.61,2.61,0,0,0-3.69-3.69l-8.38,8.39a2.6,2.6,0,0,0,0,3.69l7.13,7.13L56.06,79.3a2.61,2.61,0,0,0,0,3.68l7.14,7.14-6.55,6.55a2.61,2.61,0,0,0-.76,1.88,2.64,2.64,0,0,0,.82,1.86l17.51,16.48a2.59,2.59,0,0,0,1.79.71h26.85a2.61,2.61,0,1,0,0-5.21h-8a8.07,8.07,0,0,1,7.88-5.85,2.61,2.61,0,1,0-.22-5.21c-8.63.37-12.12,6.63-13,11.06H78.75V33.23a28,28,0,0,1,56,0V52.78H91.26A2.6,2.6,0,0,0,89,54.14a1.79,1.79,0,0,0-.12.24.56.56,0,0,0,0,.12,1.82,1.82,0,0,0-.11.38h0a10.31,10.31,0,0,0,17.85,8.77,10.25,10.25,0,0,0,15.41,0,10.3,10.3,0,0,0,18-6.83c0-.33,0-.66,0-1a3.57,3.57,0,0,0,0-.47ZM98.84,61.93a5.1,5.1,0,0,1-5-3.94h9.93A5.1,5.1,0,0,1,98.84,61.93Zm15.43,0a5.1,5.1,0,0,1-5-3.94h9.93A5.1,5.1,0,0,1,114.27,61.93Zm15.42,0a5.1,5.1,0,0,1-5-3.94h9.93A5.1,5.1,0,0,1,129.69,61.93Z"/><circle class="cls-1" cx="121.95" cy="41.86" r="3.17" transform="translate(-6.36 29.14) rotate(-13.28)"/><path class="cls-1" d="M5.26,170v-9.16c0-1.22-.64-1.61-1.32-1.61H2.58V170H0V145H4.69a3.16,3.16,0,0,1,3.15,3.15v7.73s.1,2-.93,2.22c1,.5.93,2.36.93,2.36V170Zm-1.32-13.2c.68,0,1.32-.29,1.32-1.43v-6.73a1.21,1.21,0,0,0-1.32-1.29H2.58v9.45Z"/><path class="cls-1" d="M29.77,167.49c-.29.64-.72,1.65-.82,1.86a1.48,1.48,0,0,1-1.4.68H21.83V145.7a.78.78,0,0,1,.78-.72H29.3l-.85,1.86a1.37,1.37,0,0,1-1.36.72H25a.58.58,0,0,0-.61.61v7.44h3.87c-.29.64-.72,1.68-.83,1.9a1.39,1.39,0,0,1-1.36.68H25a.63.63,0,0,0-.61.61v8.69Z"/><path class="cls-1" d="M43.83,170h-3l4-13.27L41.47,145h2a1,1,0,0,1,1,.86l1.83,6.66L48,145.84a1,1,0,0,1,1-.86h2L47.8,156.79,51.52,170H48.73l-2.32-9.09Z"/><path class="cls-2" d="M71.67,167.1a3.19,3.19,0,0,1-3.08,3.18H67a3.2,3.2,0,0,1-3.22-3.18V147.92A3.21,3.21,0,0,1,67,144.73h1.57a3.18,3.18,0,0,1,3.08,3.19v3.83a1.37,1.37,0,0,1-.68,1.36l-1.86.85v-5.61a1.38,1.38,0,0,0-2.76,0v18.28a1.38,1.38,0,1,0,2.76,0v-3.36a1.48,1.48,0,0,1,.68-1.4l1.86-.82Z"/><path class="cls-2" d="M91.67,145a1,1,0,0,1,1,1v24H90.13V159.12a.64.64,0,0,0-.61-.58H86.73V170H84.15V146a1,1,0,0,1,1-1h1.54v10.13c0,.72.29.89.89.89h2.51V145Z"/><path class="cls-2" d="M113.53,170H110.7l-2.25-17.25L106.2,170h-2.83L107.16,145h1.4c1.07,0,1.25.68,1.36,1.36Z"/><path class="cls-2" d="M133.32,170h-1.18a1.68,1.68,0,0,1-1.72-1.61L127.66,156v14h-2.57V145h1.18c1.43,0,1.68.68,1.82,1.4l2.65,13V145h2.58Z"/><path class="cls-2" d="M153.89,151.82a1.35,1.35,0,0,1-.72,1.39c-.17.11-1.18.58-1.86.86v-5.72a1.36,1.36,0,0,0-2.72,0v18.32a1.36,1.36,0,0,0,2.72,0v-7.48h-.1c-.58,0-.93-.82-.93-.82l-.86-1.79h3.22c.79,0,1.25.43,1.25,1.39v9.13a3.22,3.22,0,0,1-3.11,3.18H149.2A3.19,3.19,0,0,1,146,167.1V147.92a3.2,3.2,0,0,1,3.18-3.19h1.58a3.22,3.22,0,0,1,3.11,3.19Z"/><path class="cls-2" d="M175.75,167.49c-.28.64-.71,1.65-.82,1.86a1.46,1.46,0,0,1-1.4.68h-5.72V145.7a.79.79,0,0,1,.79-.72h6.69l-.86,1.86a1.36,1.36,0,0,1-1.36.72H171a.59.59,0,0,0-.61.61v7.44h3.87c-.29.64-.72,1.68-.82,1.9a1.4,1.4,0,0,1-1.36.68H171a.63.63,0,0,0-.61.61v8.69Z"/><path class="cls-2" d="M192.75,170v-9.16c0-1.22-.65-1.61-1.33-1.61h-1.36V170h-2.57V145h4.68a3.16,3.16,0,0,1,3.15,3.15v7.73s.11,2-.93,2.22c1,.5.93,2.36.93,2.36V170Zm-1.33-13.2c.68,0,1.33-.29,1.33-1.43v-6.73a1.21,1.21,0,0,0-1.33-1.29h-1.36v9.45Z"/></g></g></svg>