<svg xmlns="http://www.w3.org/2000/svg" viewBox="0 0 108.6 70.01"><defs><style>.cls-1{fill:#303a39;}</style></defs><g id="Layer_2" data-name="Layer 2"><g id="Layer_1-2" data-name="Layer 1"><path class="cls-1" d="M106.85,42h-.68a20.8,20.8,0,0,0-2.12-5.24l.53-.53a1.74,1.74,0,0,0,0-2.48l-5.25-5.25a1.74,1.74,0,0,0-2.48,0l-.53.53a20.8,20.8,0,0,0-5.24-2.12v-.68a1.75,1.75,0,0,0-1.75-1.75H86.24l-.45-2.12A1.74,1.74,0,0,0,84.08,21H81.91L77.48,4.72,82.75,3.4,81.9,0l-7,1.75a1.77,1.77,0,0,0-1.09.82,1.74,1.74,0,0,0-.18,1.34L76,12.76,46.45,19l-1.89-5.06a12.12,12.12,0,0,0,6.33-2,8.62,8.62,0,0,1,4.82-1.46H57.8V7H55.71A12.13,12.13,0,0,0,49,9a8.69,8.69,0,0,1-4.81,1.46h-.7A8.69,8.69,0,0,1,38.63,9L36,7.25l-1.94,2.91,2.63,1.75a12,12,0,0,0,4,1.7l2.64,7-7.91,7.41a1.74,1.74,0,0,0-1.63.43l-.53.54A20.8,20.8,0,0,0,28,26.9v-.68a1.75,1.75,0,0,0-1.75-1.75h-7a1.75,1.75,0,0,0-1.76,1.75v.68A20.88,20.88,0,0,0,12.28,29l-.53-.53a1.74,1.74,0,0,0-2.48,0L4,33.74a1.76,1.76,0,0,0,0,2.48l.54.53A20.8,20.8,0,0,0,2.43,42H1.75A1.75,1.75,0,0,0,0,43.74v7A1.75,1.75,0,0,0,1.75,52.5h.68a20.88,20.88,0,0,0,2.12,5.23L4,58.26a1.74,1.74,0,0,0,0,2.48L9.27,66a1.76,1.76,0,0,0,2.48,0l.53-.54a20.8,20.8,0,0,0,5.24,2.12v.68A1.75,1.75,0,0,0,19.27,70h7A1.75,1.75,0,0,0,28,68.26v-.68a20.88,20.88,0,0,0,5.23-2.12l.53.54a1.76,1.76,0,0,0,2.48,0l5.26-5.26a1.76,1.76,0,0,0,0-2.48L41,57.73a20.88,20.88,0,0,0,2.12-5.23h.68a1.75,1.75,0,0,0,1.75-1.76v-7A1.75,1.75,0,0,0,43.79,42h-.68A20.8,20.8,0,0,0,41,36.75l.54-.53a1.75,1.75,0,0,0,.47-1l5-4.64,3.33,8.88a8.73,8.73,0,0,0,2.17,16.37V59.5h-7V63H54.3a1.75,1.75,0,0,0,1.75-1.76V55.82a8.75,8.75,0,0,0,1.74-16.6l20-20L78.28,21H77.07a1.75,1.75,0,0,0-1.71,2.11l1.14,5.35c-.39.19-.78.38-1.16.59l-.53-.54a1.76,1.76,0,0,0-2.48,0l-5.26,5.26a1.76,1.76,0,0,0,0,2.48l.54.53A20.88,20.88,0,0,0,65.49,42h-.68a1.75,1.75,0,0,0-1.75,1.76v7a1.75,1.75,0,0,0,1.75,1.75h.68a20.8,20.8,0,0,0,2.12,5.24l-.54.53a1.76,1.76,0,0,0,0,2.48L72.33,66a1.74,1.74,0,0,0,2.48,0l.53-.53a20.88,20.88,0,0,0,5.23,2.12v.68A1.75,1.75,0,0,0,82.33,70h7a1.75,1.75,0,0,0,1.75-1.75v-.68a20.8,20.8,0,0,0,5.24-2.12l.53.54a1.76,1.76,0,0,0,2.48,0l5.25-5.26a1.74,1.74,0,0,0,0-2.48l-.53-.53a20.88,20.88,0,0,0,2.12-5.23h.68a1.75,1.75,0,0,0,1.75-1.76v-7A1.75,1.75,0,0,0,106.85,42ZM75.64,16.42,53.71,38.35l-6-16ZM40,44.05a1.76,1.76,0,0,0,1.73,1.44H42V49h-.33A1.77,1.77,0,0,0,40,50.43,17.29,17.29,0,0,1,37.32,57a1.76,1.76,0,0,0,.21,2.22l.28.28L35,62.28,34.75,62a1.77,1.77,0,0,0-2.22-.22A17.31,17.31,0,0,1,26,64.45a1.77,1.77,0,0,0-1.44,1.73v.33H21v-.33a1.76,1.76,0,0,0-1.44-1.73A17.36,17.36,0,0,1,13,61.79a1.76,1.76,0,0,0-2.22.21l-.28.28L7.73,59.5,8,59.22A1.74,1.74,0,0,0,8.23,57a17.31,17.31,0,0,1-2.67-6.57A1.76,1.76,0,0,0,3.84,49H3.5v-3.5h.34a1.75,1.75,0,0,0,1.72-1.44,17.22,17.22,0,0,1,2.67-6.57A1.77,1.77,0,0,0,8,35.26L7.73,35l2.78-2.78.28.28A1.74,1.74,0,0,0,13,32.7,17.38,17.38,0,0,1,19.58,30,1.75,1.75,0,0,0,21,28.31V28h3.5v.34A1.76,1.76,0,0,0,26,30a17.63,17.63,0,0,1,5.32,1.91L28.55,34.5a14.06,14.06,0,1,0,6.86,6.74l2.69-2.46A17.28,17.28,0,0,1,40,44.05ZM15.89,47.89A1.75,1.75,0,0,0,17.52,49h8.75a1.76,1.76,0,0,0,1.19-.46l5.2-4.77a10.49,10.49,0,1,1-9.89-7,10.78,10.78,0,0,1,2.94.43L16.32,46A1.74,1.74,0,0,0,15.89,47.89Zm9.7-2.4H22l22.71-21.3L45.73,27Zm34,1.75a5.23,5.23,0,0,1-3.5,4.93V45.49h-3.5v6.68a5.24,5.24,0,1,1,7-4.93Zm19.3-7.85,1.76,8.22A1.77,1.77,0,0,0,82.33,49h7a1.78,1.78,0,0,0,1.37-.65,1.75,1.75,0,0,0,.35-1.46L89,37.21a10.52,10.52,0,1,1-10.13,2.18Zm8.32,6.1H83.74l-4.5-21h3.42ZM105.1,49h-.34A1.76,1.76,0,0,0,103,50.43,17.15,17.15,0,0,1,100.37,57a1.77,1.77,0,0,0,.22,2.22l.28.28-2.78,2.78L97.81,62a1.77,1.77,0,0,0-2.22-.22A17.38,17.38,0,0,1,89,64.45a1.76,1.76,0,0,0-1.44,1.73v.33h-3.5v-.33a1.76,1.76,0,0,0-1.44-1.73,17.36,17.36,0,0,1-6.57-2.66,1.76,1.76,0,0,0-2.22.21l-.28.28L70.79,59.5l.28-.28A1.77,1.77,0,0,0,71.29,57a17.31,17.31,0,0,1-2.67-6.57A1.77,1.77,0,0,0,66.89,49h-.33v-3.5h.33a1.76,1.76,0,0,0,1.73-1.44,17.36,17.36,0,0,1,2.66-6.57,1.76,1.76,0,0,0-.21-2.22L70.79,35l2.78-2.78.28.28a1.74,1.74,0,0,0,2.22.22A13.06,13.06,0,0,1,77.26,32L78,35.6a14,14,0,1,0,10.13-2.16L87,28h.58v.34A1.75,1.75,0,0,0,89,30a17.22,17.22,0,0,1,6.57,2.67,1.76,1.76,0,0,0,2.22-.22l.28-.28L100.87,35l-.28.28a1.74,1.74,0,0,0-.22,2.22A17.38,17.38,0,0,1,103,44.05a1.75,1.75,0,0,0,1.72,1.44h.34Z"/></g></g></svg>