<svg xmlns="http://www.w3.org/2000/svg" viewBox="0 0 78.42 78.42"><defs><style>.cls-1{fill:#303a39;}</style></defs><g id="Layer_2" data-name="Layer 2"><g id="Layer_1-2" data-name="Layer 1"><g id="Page-1"><g id="_021---Helmet" data-name="021---Helmet"><path id="Shape" class="cls-1" d="M12.44,18.3a1.27,1.27,0,0,0,1-.5A26.27,26.27,0,0,1,31.49,8a1.32,1.32,0,0,0,1.12-.74,1.31,1.31,0,0,0-1.36-1.86A28.88,28.88,0,0,0,11.41,16.18a1.3,1.3,0,0,0-.15,1.38A1.32,1.32,0,0,0,12.44,18.3Z"/><path id="Shape-2" data-name="Shape" class="cls-1" d="M3.92,61.43a3.9,3.9,0,0,0,3.7-2.67,18.68,18.68,0,0,0,5.23-1.41C25.39,66.78,45.72,68.82,51,69.2v1.38a2.6,2.6,0,0,0,1.3,2.25v3a2.61,2.61,0,0,0,2.62,2.61h2.61a2.62,2.62,0,0,0,2.62-2.61v-3a2.6,2.6,0,0,0,1.3-2.25V65.35a2.61,2.61,0,0,0-2.61-2.61H57.76l4.77-27.45h5.41a25.83,25.83,0,0,0,8.75-1.53,2.64,2.64,0,0,0,1.72-2.21,2.59,2.59,0,0,0-1.23-2.47c-1.83-1.12-4-3-4-5.55A23.55,23.55,0,0,0,49.65,0H34A34,34,0,0,0,0,34V48.36a2.57,2.57,0,0,0,.67,1.73A3.9,3.9,0,0,0,0,52.28v5.23a3.92,3.92,0,0,0,3.92,3.92Zm1.31-3.92a1.31,1.31,0,0,1-2.62,0V52.28a1.31,1.31,0,0,1,2.62,0Zm2.35-6.62c3.7-.42,7.23-2.94,10.37-5.21l.68-.48a54.15,54.15,0,0,1,6.11-3.8,24.58,24.58,0,0,1-5.71,9A23.37,23.37,0,0,1,7.84,56.09V52.28a3.89,3.89,0,0,0-.26-1.39ZM57.51,75.81H54.9V73.2h2.61Zm1.31-5.23H53.59V65.35h5.23ZM55.1,62.74H53.59A2.61,2.61,0,0,0,51,65.35v1.22c-5.14-.41-23.68-2.4-35.45-10.52a26.78,26.78,0,0,0,5.29-3.74c3.68-3.47,5.33-7.48,6.79-11,.23-.56.46-1.1.69-1.63a50.59,50.59,0,0,1,20.5-4.37H59.88ZM2.61,34A31.41,31.41,0,0,1,34,2.61H49.65a20.94,20.94,0,0,1,20.9,20.92c0,3.77,2.87,6.31,5.25,7.77a23.15,23.15,0,0,1-7.86,1.38H48.8A54.16,54.16,0,0,0,17.1,43.07l-.68.49c-3.12,2.25-6.65,4.8-9.88,4.8H2.61Z"/><path id="Shape-3" data-name="Shape" class="cls-1" d="M58.87,18.62a10.65,10.65,0,0,1,1.18,3.89,2.57,2.57,0,0,0,2.59,2.32h2.63A2.6,2.6,0,0,0,67.19,24a2.67,2.67,0,0,0,.69-2,18.09,18.09,0,0,0-2.21-7.27A2.6,2.6,0,0,0,64,13.43a2.63,2.63,0,0,0-2.08.36l-2.19,1.46a2.58,2.58,0,0,0-.86,3.37ZM63.38,16a15.5,15.5,0,0,1,1.89,6.25l-2.62,0a12.89,12.89,0,0,0-1.46-4.84Z"/><path id="Shape-4" data-name="Shape" class="cls-1" d="M53.89,14a11.61,11.61,0,0,1,1.43.77,2.58,2.58,0,0,0,1.4.42A2.62,2.62,0,0,0,58.89,14l1.46-2.18a2.57,2.57,0,0,0,.38-2,2.65,2.65,0,0,0-1.16-1.7,18.51,18.51,0,0,0-3.79-1.86,2.62,2.62,0,0,0-3.5,2.48v2.8A2.65,2.65,0,0,0,53.89,14Zm1-5.21h0a15.25,15.25,0,0,1,3.26,1.62l-1.42,2.18a12.51,12.51,0,0,0-1.84-1Z"/><path id="Shape-5" data-name="Shape" class="cls-1" d="M44.44,13.07h2.61a2.61,2.61,0,0,0,2.62-2.61V7.84a2.61,2.61,0,0,0-2.62-2.61H44.44a2.61,2.61,0,0,0-2.61,2.61v2.62A2.61,2.61,0,0,0,44.44,13.07Zm0-5.23h2.61v2.62H44.44Z"/><path id="Shape-6" data-name="Shape" class="cls-1" d="M13.07,41.83A3.92,3.92,0,0,0,17,37.9V32.68a3.91,3.91,0,0,0-3.92-3.92H10.46A5.23,5.23,0,0,0,5.23,34,7.85,7.85,0,0,0,13.07,41.83ZM10.46,31.37h2.61a1.31,1.31,0,0,1,1.31,1.31V37.9a1.31,1.31,0,0,1-1.31,1.31A5.23,5.23,0,0,1,7.84,34,2.61,2.61,0,0,1,10.46,31.37Z"/><circle id="Oval" class="cls-1" cx="9.15" cy="22.22" r="1.31"/></g></g></g></g></svg>