<svg xmlns="http://www.w3.org/2000/svg" xmlns:xlink="http://www.w3.org/1999/xlink" viewBox="0 0 279.36 231.28"><defs><style>.cls-1,.cls-6{fill:none;}.cls-2{clip-path:url(#clip-path);}.cls-3,.cls-5{fill:#eae1db;}.cls-4{fill:#ecc463;opacity:0.63;}.cls-5{stroke:#ded0c8;}.cls-5,.cls-6{stroke-miterlimit:10;stroke-width:3px;}.cls-6{stroke:#fff;opacity:0.55;}.cls-7{fill:#9fcea6;}.cls-8{fill:#617473;}</style><clipPath id="clip-path" transform="translate(23.44)"><rect class="cls-1" width="221" height="221"/></clipPath></defs><g id="Layer_2" data-name="Layer 2"><g id="Layer_1-2" data-name="Layer 1"><g class="cls-2"><rect class="cls-3" x="23.44" width="221" height="221"/><path class="cls-4" d="M84.55,13.56c10.7-4.18,22.3-5.53,33.78-6,23.54-.89,49,2.67,66.25,18.67,17.5,16.19,22.8,44.14,12.46,65.62a35.77,35.77,0,0,1-8.82,12c-4,3.36-8.87,5.45-13.79,7.15a114.51,114.51,0,0,1-76.69-1,23.86,23.86,0,0,1-8.19-4.51c-4.25-4-5.41-10.19-8.4-15.19-3.16-5.3-8.26-9.09-12.4-13.66C60.22,67.29,55,52.63,57.38,39.88S73.16,18,84.55,13.56Z" transform="translate(23.44)"/><path class="cls-5" d="M90,67.65l23.28-21.81c2-1.84,4-3.74,6.61-4.5,5-1.49,10.23,1.76,13.47,5.82s5.28,9,8.66,13c2.7,3.17,6.15,5.58,9.17,8.45a41.33,41.33,0,0,1,11.14,18.31c2.83,9.72-.6,20.58-.61,30.71-11.38,2.82-22.86,5.65-34.58,6.19a35.75,35.75,0,0,1-9.24-.55,38.3,38.3,0,0,1-8.72-3.34,149.43,149.43,0,0,1-21.72-13.06,6.67,6.67,0,0,1-2.36-2.42,7.07,7.07,0,0,1-.45-2.86,141.62,141.62,0,0,1,.49-17.36C85.71,78.52,85.8,71.54,90,67.65Z" transform="translate(23.44)"/><path class="cls-5" d="M141.74,105.34l19-16.87a62.19,62.19,0,0,1,6-4.89c2.08-1.43,4.32-2.61,6.51-3.88,12.62-7.31,23.31-17.53,33-28.4,4.33-4.84,9.88-10.34,16.23-8.93,13,2.89,16,21,18.24,34.16l13.37,79.58-38.08,2.5c-5.52.36-11.21.7-16.42-1.14s-9.85-6.46-9.94-12a47.29,47.29,0,0,1-34.59-16c-3.54-4-6.38-8.71-10.27-12.42-1.8-1.73-3.88-3.3-5-5.54S139.88,107,141.74,105.34Z" transform="translate(23.44)"/><path class="cls-6" d="M111.83,48.33c1.59,2.9,5.64,3,8.92,2.66a113.79,113.79,0,0,0,11.72-2" transform="translate(23.44)"/><path class="cls-6" d="M196,63.47a25,25,0,0,1,12.39,4.21c2.28,1.54,4.31,3.46,6.75,4.74s5.51,1.8,7.89.43" transform="translate(23.44)"/><path class="cls-5" d="M-2.16,73.78,28.65,37.27c4.29-5.08,9.54-10.61,16.18-10.38,4.76.17,8.83,3.34,12.35,6.55,15.36,14,27.18,31.73,43.39,44.77,6.81,5.47,14.28,10,21.65,14.72a717.91,717.91,0,0,1,65.42,46.9c-21.36.68-42.31,2.46-63.56,4.63a93.87,93.87,0,0,1-16,.77c-3.69-.26-7.33-1-11-1.55-28.17-4.42-56.93-.4-85,4.45-8.17,1.42-16.57,2.9-24.66,1.15-3.35-.72-6.85-2.23-8.44-5.26-1.42-2.74-.95-6-.4-9.08C-17.56,113.87-16,90.15-2.16,73.78Z" transform="translate(23.44)"/><path class="cls-6" d="M17.44,51.46a24,24,0,0,0,5.48,5.59,8.15,8.15,0,0,0,7.47,1.06,28.63,28.63,0,0,0,3.16-2c4-2.37,9.17-1.85,13.15.44,1.44.83,2.84,1.91,4.5,2.07,4,.39,6.56-4.44,10.43-5.49,3.5-.94,8.27,1,10.21-2.05" transform="translate(23.44)"/><path class="cls-7" d="M94.19,127.78c19.13,0,38.15,2.73,57.06,5.64Q189,139.24,226.63,146a753.53,753.53,0,0,1,.84,82.73q-121.3.24-242.6,2.54a108.28,108.28,0,0,1,3-45.26c3.76-13.25,9-25.94,5.17-39.81,13.45-7.34,33.56-9.56,48.74-12.6C59,130.16,76.55,127.79,94.19,127.78Z" transform="translate(23.44)"/><path class="cls-8" d="M149.22,140.45a1.3,1.3,0,0,0-1.82.2l-3.69,4.61c-3.14-9.44-15.58-44.58-30-54.23l4.48-4.47a1.32,1.32,0,0,0,0-1.84,1.3,1.3,0,0,0-1.84,0L112.06,89V81.75h18.18l-6.92-5.2,6.92-5.19H109.47V89l-4.28-4.28a1.3,1.3,0,0,0-1.83,1.84L107.83,91c-14.43,9.65-26.87,44.79-30,54.23l-3.69-4.61a1.29,1.29,0,1,0-2,1.62l5.19,6.49a.5.5,0,0,0,.08.07,1.71,1.71,0,0,0,.26.21l.2.11.09,0a1.21,1.21,0,0,0,.38.06h0a1.59,1.59,0,0,0,.38-.07l.12-.06a1,1,0,0,0,.25-.14h0s0-.06.06-.08a1.09,1.09,0,0,0,.22-.26,1.19,1.19,0,0,0,.08-.16c0-.05,0-.08.07-.13.14-.45,13.21-41.79,28.08-53.94L81.45,149.25h58.64L113.9,94.4c14.87,12.15,27.94,53.49,28.08,53.94,0,0,.05.08.07.13a.6.6,0,0,0,.08.16,1.09,1.09,0,0,0,.22.26s0,.06.06.08h0a1,1,0,0,0,.25.14l.12.06a1.59,1.59,0,0,0,.38.07h0a1.32,1.32,0,0,0,.39-.06l.08,0,.2-.11a1.71,1.71,0,0,0,.26-.21.5.5,0,0,0,.08-.07l5.2-6.49A1.3,1.3,0,0,0,149.22,140.45Zm-26.77-61.3H112.06V74h10.39L119,76.55Zm.06,54.39L120,143.12l-6.59-22.65,6.7,5.48A7.38,7.38,0,0,1,122.51,133.54Zm-19,13.08,7.36-25.24,7.36,25.27Zm-1.68-3.51-2.55-9.57a7.38,7.38,0,0,1,2.45-7.59l6.72-5.49Zm31,3.55a1.3,1.3,0,1,0-2.59,0h-2.6a1.3,1.3,0,1,0-2.59,0h-3.36l1.75-6.56a1.07,1.07,0,0,0,.31.06,1.3,1.3,0,0,0,1.3-1.29,1.29,1.29,0,0,0-1-1.23l.91-3.43a10,10,0,0,0-3.31-10.27l-9.78-8-.18-.37-1.69,0-.18.38-9.73,8a10,10,0,0,0-3.32,10.27l.9,3.37a1.29,1.29,0,1,0,.65,2.43l1.77,6.65H96.49a1.3,1.3,0,0,0-2.6,0h-2.6a1.3,1.3,0,1,0-2.59,0H85.56l.85-1.79a1.28,1.28,0,0,0,2.29-.81,1.31,1.31,0,0,0-1.28-1.3l2.49-5.21.08,0a1.3,1.3,0,0,0,1.3-1.3,1.31,1.31,0,0,0-.35-.88l.53-1.11a1.27,1.27,0,0,0,1.12.69,1.3,1.3,0,1,0,0-2.59,2,2,0,0,0-.24,0l18.42-38.57,18.41,38.57a2,2,0,0,0-.24,0,1.3,1.3,0,1,0,1.13,1.9l.52,1.11a1.31,1.31,0,0,0-.35.88,1.3,1.3,0,0,0,1.3,1.3l.08,0,2.49,5.21a1.3,1.3,0,0,0,0,2.6,1.28,1.28,0,0,0,1-.49l.85,1.79Z" transform="translate(23.44)"/><circle class="cls-8" cx="116.03" cy="144.06" r="1.3"/><circle class="cls-8" cx="116.03" cy="138.87" r="1.3"/><circle class="cls-8" cx="118.63" cy="136.27" r="1.3"/><circle class="cls-8" cx="121.22" cy="144.06" r="1.3"/><circle class="cls-8" cx="118.63" cy="141.46" r="1.3"/><circle class="cls-8" cx="113.43" cy="141.46" r="1.3"/><circle class="cls-8" cx="152.38" cy="144.06" r="1.3"/><circle class="cls-8" cx="152.38" cy="138.87" r="1.3"/><circle class="cls-8" cx="149.78" cy="136.27" r="1.3"/><circle class="cls-8" cx="147.19" cy="144.06" r="1.3"/><circle class="cls-8" cx="149.78" cy="141.46" r="1.3"/><circle class="cls-8" cx="154.98" cy="141.46" r="1.3"/></g><path class="cls-8" d="M43.79,177.83H41.24v-1.21h6.54v1.21H45.22v6.49H43.79Z" transform="translate(23.44)"/><path class="cls-8" d="M56.52,176.62v7.7H55.09V181h-4v3.3H49.68v-7.7h1.43v3.18h4v-3.18Z" transform="translate(23.44)"/><path class="cls-8" d="M65.19,183.13v1.19H59.41v-7.7H65v1.2h-4.2v2h3.72V181H60.84v2.13Z" transform="translate(23.44)"/><path class="cls-8" d="M76.73,180.39h1.35v3.07a4.9,4.9,0,0,1-3,1,4,4,0,1,1,3.11-6.66l-.9.88a2.85,2.85,0,0,0-2.12-.88,2.71,2.71,0,1,0,0,5.41,3.08,3.08,0,0,0,1.59-.4Z" transform="translate(23.44)"/><path class="cls-8" d="M86.56,183.13v1.19H80.79v-7.7h5.62v1.2H82.22v2h3.72V181H82.22v2.13Z" transform="translate(23.44)"/><path class="cls-8" d="M94,182.54H90.13l-.76,1.78H87.89l3.47-7.7h1.41l3.47,7.7H94.75Zm-.48-1.12-1.45-3.37-1.44,3.37Z" transform="translate(23.44)"/><path class="cls-8" d="M103.08,184.32l-1.57-2.25h-2v2.24H98.05v-7.7h3.16c2,0,3.28,1,3.28,2.74a2.45,2.45,0,0,1-1.64,2.43l1.77,2.53Zm-1.93-6.49H99.48v3.07h1.67c1.25,0,1.9-.57,1.9-1.54S102.4,177.83,101.15,177.83Z" transform="translate(23.44)"/><path class="cls-8" d="M114.1,181.61v2.71h-1.43v-2.69l-3-5h1.53l2.25,3.76,2.28-3.76h1.41Z" transform="translate(23.44)"/><path class="cls-8" d="M118,180.47a4.15,4.15,0,1,1,4.15,4A3.95,3.95,0,0,1,118,180.47Zm6.85,0a2.71,2.71,0,1,0-2.7,2.71A2.62,2.62,0,0,0,124.84,180.47Z" transform="translate(23.44)"/><path class="cls-8" d="M128.56,181v-4.35H130v4.29c0,1.59.72,2.27,2,2.27s2-.68,2-2.27v-4.29h1.4V181a3.37,3.37,0,1,1-6.74,0Z" transform="translate(23.44)"/><path class="cls-8" d="M148.83,176.62v7.7h-1.17l-4.25-5.21v5.21H142v-7.7h1.18l4.24,5.22v-5.22Z" transform="translate(23.44)"/><path class="cls-8" d="M157.5,183.13v1.19h-5.77v-7.7h5.62v1.2h-4.19v2h3.72V181h-3.72v2.13Z" transform="translate(23.44)"/><path class="cls-8" d="M165.7,183.13v1.19h-5.78v-7.7h5.62v1.2h-4.19v2h3.72V181h-3.72v2.13Z" transform="translate(23.44)"/><path class="cls-8" d="M168.12,176.62h3.36c2.5,0,4.21,1.54,4.21,3.85s-1.71,3.85-4.21,3.85h-3.36Zm3.3,6.49a2.65,2.65,0,1,0,0-5.28h-1.87v5.28Z" transform="translate(23.44)"/><path class="cls-8" d="M179,183.49a2.45,2.45,0,0,1-.26.94L178.2,186h-.89l.44-1.69a.84.84,0,0,1-.52-.81.9.9,0,1,1,1.79,0Z" transform="translate(23.44)"/><path class="cls-8" d="M36.88,190.62l-2.55,7.7H32.81l-1.91-5.69L29,198.32H27.44l-2.55-7.7h1.48l1.92,5.86,2-5.86H31.6l1.94,5.89,2-5.89Z" transform="translate(23.44)"/><path class="cls-8" d="M45.71,190.62v7.7H44.28V195h-4v3.3H38.87v-7.7H40.3v3.18h4v-3.18Z" transform="translate(23.44)"/><path class="cls-8" d="M54.38,197.13v1.19H48.6v-7.7h5.62v1.2H50v2h3.72V195H50v2.13Z" transform="translate(23.44)"/><path class="cls-8" d="M61.84,198.32l-1.58-2.25h-2v2.24H56.8v-7.7H60c2,0,3.28,1,3.28,2.74a2.45,2.45,0,0,1-1.64,2.43l1.78,2.53Zm-1.94-6.49H58.23v3.07H59.9c1.25,0,1.9-.57,1.9-1.54S61.15,191.83,59.9,191.83Z" transform="translate(23.44)"/><path class="cls-8" d="M71.44,197.13v1.19H65.66v-7.7h5.62v1.2H67.09v2h3.72V195H67.09v2.13Z" transform="translate(23.44)"/><path class="cls-8" d="M80.79,190.62l-3.36,7.7H76l-3.37-7.7h1.55l2.56,5.94,2.59-5.94Z" transform="translate(23.44)"/><path class="cls-8" d="M88.2,197.13v1.19H82.43v-7.7h5.62v1.2H83.86v2h3.72V195H83.86v2.13Z" transform="translate(23.44)"/><path class="cls-8" d="M95.66,198.32l-1.57-2.25h-2v2.24H90.62v-7.7h3.17c2,0,3.28,1,3.28,2.74a2.46,2.46,0,0,1-1.64,2.43l1.77,2.53Zm-1.94-6.49H92.05v3.07h1.67c1.26,0,1.91-.57,1.91-1.54S95,191.83,93.72,191.83Z" transform="translate(23.44)"/><path class="cls-8" d="M106.67,195.61v2.71h-1.43v-2.69l-3-5h1.53l2.26,3.76,2.28-3.76h1.41Z" transform="translate(23.44)"/><path class="cls-8" d="M110.56,194.47a4.15,4.15,0,1,1,4.15,4A3.95,3.95,0,0,1,110.56,194.47Zm6.86,0a2.71,2.71,0,1,0-2.71,2.71A2.62,2.62,0,0,0,117.42,194.47Z" transform="translate(23.44)"/><path class="cls-8" d="M121.13,195v-4.35h1.44v4.29c0,1.59.71,2.27,2,2.27s2-.68,2-2.27v-4.29h1.41V195a3.38,3.38,0,1,1-6.75,0Z" transform="translate(23.44)"/><path class="cls-8" d="M131.92,191a2.35,2.35,0,0,1-.25.94l-.57,1.57h-.89l.44-1.7a.82.82,0,0,1-.52-.81.9.9,0,1,1,1.79,0Z" transform="translate(23.44)"/><path class="cls-8" d="M139.25,198.32l-1.57-2.25h-2v2.24h-1.43v-7.7h3.17c2,0,3.28,1,3.28,2.74a2.45,2.45,0,0,1-1.64,2.43l1.77,2.53Zm-1.93-6.49h-1.68v3.07h1.68c1.25,0,1.9-.57,1.9-1.54S138.57,191.83,137.32,191.83Z" transform="translate(23.44)"/><path class="cls-8" d="M148.86,197.13v1.19h-5.78v-7.7h5.62v1.2h-4.19v2h3.72V195h-3.72v2.13Z" transform="translate(23.44)"/><path class="cls-8" d="M160.39,194.39h1.36v3.07a5,5,0,0,1-3,1,4,4,0,1,1,0-7.92,4,4,0,0,1,3.09,1.26l-.91.88a2.82,2.82,0,0,0-2.12-.88,2.71,2.71,0,1,0,0,5.41,3,3,0,0,0,1.58-.4Z" transform="translate(23.44)"/><path class="cls-8" d="M163.9,194.47a4.15,4.15,0,1,1,4.15,4A3.95,3.95,0,0,1,163.9,194.47Zm6.86,0a2.71,2.71,0,1,0-2.71,2.71A2.62,2.62,0,0,0,170.76,194.47Z" transform="translate(23.44)"/><path class="cls-8" d="M174.54,190.62H176v7.7h-1.43Z" transform="translate(23.44)"/><path class="cls-8" d="M185.72,190.62v7.7h-1.18l-4.25-5.21v5.21h-1.42v-7.7h1.18l4.25,5.22v-5.22Z" transform="translate(23.44)"/><path class="cls-8" d="M193.87,194.39h1.35v3.07a4.93,4.93,0,0,1-3,1,4,4,0,1,1,0-7.92,4,4,0,0,1,3.09,1.26l-.9.88a2.85,2.85,0,0,0-2.13-.88,2.71,2.71,0,1,0,0,5.41,3.11,3.11,0,0,0,1.59-.4Z" transform="translate(23.44)"/></g></g></svg>