<svg xmlns="http://www.w3.org/2000/svg" viewBox="0 0 77.87 77.89"><defs><style>.cls-1{fill:#303a39;}</style></defs><g id="Layer_2" data-name="Layer 2"><g id="Layer_1-2" data-name="Layer 1"><path class="cls-1" d="M53.39,17.12c6.28-4.37,11.34-6.31,14.55-7.08-.16.63-.36,1.3-.59,2a49.34,49.34,0,0,1-6.59,12.44,1.31,1.31,0,0,0,.32,1.81,1.29,1.29,0,0,0,.74.23A1.27,1.27,0,0,0,62.89,26a52.72,52.72,0,0,0,6.92-13.11c.25-.76.46-1.48.64-2.16a2.66,2.66,0,0,0-3.27-3.26A50.86,50.86,0,0,0,51.9,15a1.3,1.3,0,0,0,1.49,2.13Z"/><path class="cls-1" d="M35.35,50.57l-7.23-.81-.8-7.23a1.3,1.3,0,0,0-2.59.29l.74,6.65-6.65-.74a1.3,1.3,0,0,0-.28,2.58l7.23.8.8,7.23a1.31,1.31,0,0,0,1.29,1.16H28a1.29,1.29,0,0,0,1.15-1.43l-.74-6.65,6.65.74h.15a1.29,1.29,0,0,0,.14-2.58Z"/><path class="cls-1" d="M24.33,61.58l-7.23-.8-.8-7.23a1.3,1.3,0,0,0-2.58.28l.74,6.65-6.65-.74a1.31,1.31,0,0,0-1.43,1.15,1.29,1.29,0,0,0,1.14,1.43l7.23.81.81,7.23a1.29,1.29,0,0,0,1.29,1.15H17a1.3,1.3,0,0,0,1.15-1.43l-.74-6.65,6.65.74h.14a1.3,1.3,0,0,0,.14-2.59Z"/><path class="cls-1" d="M44.38,24.42A9,9,0,0,0,38,27.07l-4.59,4.59h0L28.6,36.43a2.33,2.33,0,0,0,0,3.31l9.54,9.54a2.33,2.33,0,0,0,3.31,0l9.36-9.36a9.08,9.08,0,0,0-6.43-15.5ZM39.79,47.27l-9.17-9.18,3.67-3.68,9.18,9.18ZM49,38.09,45.3,41.76l-9.18-9.18,3.68-3.67a6.49,6.49,0,0,1,9.18,0A6.5,6.5,0,0,1,49,38.09Z"/><path class="cls-1" d="M75.86,66.64l-9.93-9.92A6.4,6.4,0,0,0,62.61,55a7.85,7.85,0,0,1-4.14-2l-6.66-6.67,6-6C78.48,19.6,76.66,3.12,76.57,2.43l-.13-1-1-.12C74.76,1.22,58.28-.6,37.65,20l-6.08,6.08L24.9,19.45a7.75,7.75,0,0,1-2-4.14A6.51,6.51,0,0,0,21.12,12L11,1.9a6.49,6.49,0,0,0-9.62.49A6.69,6.69,0,0,0,2,11.25l9.93,9.92a6.3,6.3,0,0,0,3.31,1.76,7.79,7.79,0,0,1,4.14,2l6.67,6.66L12.26,45.43C1.7,56-2.13,68.68,3.54,74.34A9.7,9.7,0,0,0,10.63,77c6.3,0,14.57-4.08,21.82-11.34L46.3,51.78,53,58.44a7.86,7.86,0,0,1,2,4.14,6.39,6.39,0,0,0,1.75,3.32L66.85,76a6.5,6.5,0,0,0,4.59,1.89h.33a6.49,6.49,0,0,0,4.7-2.38A6.69,6.69,0,0,0,75.86,66.64ZM21.23,23.12a10.39,10.39,0,0,0-5.48-2.74,3.81,3.81,0,0,1-2-1L3.85,9.41A4.06,4.06,0,0,1,3.41,4,3.86,3.86,0,0,1,6.23,2.6h.2A3.86,3.86,0,0,1,9.18,3.73l10.1,10.1a3.83,3.83,0,0,1,1,2,10.24,10.24,0,0,0,2.74,5.49L29.73,28l-1.18,1.18-.65.66Zm9.39,40.67C21.41,73,9.85,77,5.37,72.51,3.28,70.42,3,66.72,4.44,62.09a38.78,38.78,0,0,1,9.65-14.82L27.9,33.46h0L30,31.4l9.52-9.52C49.77,11.59,58.92,7.25,64.78,5.41A31.45,31.45,0,0,1,74,3.84H74c0,3.88-1.24,17.77-18,34.56ZM74.46,73.86a3.84,3.84,0,0,1-2.82,1.43,3.93,3.93,0,0,1-3-1.13L58.59,64.06a3.83,3.83,0,0,1-1.05-2,10.35,10.35,0,0,0-2.74-5.48l-6.66-6.67L50,48.1l6.67,6.67a10.32,10.32,0,0,0,5.48,2.74,3.82,3.82,0,0,1,2,1.05L74,68.48A4.06,4.06,0,0,1,74.46,73.86Z"/><circle class="cls-1" cx="59.7" cy="18.17" r="1.3"/><circle class="cls-1" cx="57.11" cy="20.77" r="1.3"/><circle class="cls-1" cx="54.51" cy="23.37" r="1.3"/></g></g></svg>