<svg xmlns="http://www.w3.org/2000/svg" viewBox="0 0 77.89 77.89"><defs><style>.cls-1{fill:#303a39;}</style></defs><g id="Layer_2" data-name="Layer 2"><g id="Layer_1-2" data-name="Layer 1"><path class="cls-1" d="M49.11,26.42A1.72,1.72,0,0,0,48,26a1.54,1.54,0,0,0-1.09.45l-4.31,4.31a1.55,1.55,0,0,0,0,2.17l4.26,4.3a1.52,1.52,0,0,0,2.17,0l4.35-4.3a1.53,1.53,0,0,0,0-2.18ZM48,34.61l-2.78-2.8L48,29l2.8,2.8Z"/><path class="cls-1" d="M68.8,23.73h0l-.3-.21c-.41-.29-.84-.57-1.28-.83l-.32-.2c-.38-.21-.75-.42-1.14-.62l-.22-.1-.63-.31V18.17h3.25a8.44,8.44,0,0,0,0-16.87H64.48A2.75,2.75,0,0,0,62.15,0H58.58a2.75,2.75,0,0,0-2.33,1.3H39.81A2.74,2.74,0,0,0,37.48,0H33.92a2.75,2.75,0,0,0-2.33,1.3H27.91a8.44,8.44,0,1,0,0,16.87h3.25v2.75a21.28,21.28,0,0,0-3.74,1.84l-.16.09h0a22.36,22.36,0,0,0-5.77,5.24,2.87,2.87,0,0,0-2-.83H16.88V24.15a2.09,2.09,0,0,0-2.09-2.08H11.17a2.08,2.08,0,0,0-2.08,2.08v3.11H6.75a2.87,2.87,0,0,0-2.86,2.86v2.33A3.89,3.89,0,0,0,2.6,40v6.72H0V66.42A11.49,11.49,0,0,0,11.47,77.89H68.8a9.09,9.09,0,0,0,9.09-9.09V41.54A22,22,0,0,0,68.8,23.73Zm5.43,11.52a9.32,9.32,0,0,1-5.43,8.22V27.07A19.4,19.4,0,0,1,74.23,35.25ZM29.86,44.14h7.79V47.5l-3.9,3.89L29.86,47.5Zm36.33-19h0v8.65H58.42V22.27h.07c.64.09,1.27.21,1.9.36l.29.08c.53.14,1,.29,1.56.47l.44.16c.57.21,1.12.45,1.66.71l.09,0C65,24.4,65.62,24.73,66.19,25.09ZM58.42,36.35H61V39a1.3,1.3,0,0,0,2.59,0v-2.6h2.6v5.19H58.42Zm-2.6-16.9v0H40.24v-1.3H55.82ZM33.37,22.92l.56-.16c.45-.12.9-.23,1.36-.32l.28-.06.46-.07c.44-.07.88-.12,1.32-.16h.3V33.75H29.86V24.36A19.48,19.48,0,0,1,33.37,22.92ZM29.86,36.35h2.59V39a1.3,1.3,0,0,0,2.6,0v-2.6h2.6v5.19H29.86Zm10.38-2.6V22.07H55.82V44.14H40.24ZM58.42,44.14h7.79V47.5l-3.9,3.89L58.42,47.5ZM74,9.74a5.85,5.85,0,0,1-5.84,5.84H64.91V3.89h3.25A5.86,5.86,0,0,1,74,9.74ZM58.58,2.6h3.57a.16.16,0,0,1,.16.16V20.45a21.66,21.66,0,0,0-3.89-.81V2.76A.16.16,0,0,1,58.58,2.6Zm-2.76,13H40.24V3.89H55.82Zm-27.91,0a5.85,5.85,0,0,1,0-11.69h3.25V15.58ZM33.75,2.76a.17.17,0,0,1,.17-.16h3.56a.17.17,0,0,1,.17.16V19.51h-.06l-.58.05-.62.06-.55.07-.44.08-.43.07c-.35.06-.71.14-1.06.22l-.16,0V2.76ZM27.26,26V43.5c-3.34-1.57-6.6-4.4-6.73-8.22.12-.35.25-.7.38-1a20.48,20.48,0,0,1,1.24-2.48l.18-.3v0A19.7,19.7,0,0,1,27.26,26ZM11.68,24.67h2.6v2.59h-2.6ZM6.49,30.12a.26.26,0,0,1,.26-.26H19.47a.26.26,0,0,1,.26.26v.6c-.31.56-.6,1.14-.87,1.73H6.49Zm-2.6,4.93h14c-.1.33-.17.67-.26,1l-.09.38c-.1.4-.18.8-.26,1.2H3.89a1.3,1.3,0,0,1,0-2.6Zm1.3,5.19H16.92c0,.45,0,.88,0,1.3v5.19H5.19ZM2.6,66.42V49.33H16.88v26H11.47A8.89,8.89,0,0,1,2.6,66.42ZM26,75.3V65.14L32.84,71l1,.74,7.73-6.63V75.3ZM41.54,61.72l-7.79,6.67L26,61.72v-2H41.54ZM53.23,75.3V65.14L60.11,71l1,.74,7.73-6.63V75.28s0,0,0,0ZM68.8,61.72,61,68.39l-7.79-6.67v-2H68.8Zm6.5,7.08a6.49,6.49,0,0,1-3.9,5.94V57.12H50.63V75.3H44.14V57.12H23.37V75.3h-3.9V41.54c0-.4,0-.79.06-1.19a16.6,16.6,0,0,0,7.73,6v2.23l5.32,5.32a1.68,1.68,0,0,0,2.35,0l5.31-5.32V46.73H55.82v1.84l5.32,5.32a1.68,1.68,0,0,0,2.35,0l5.31-5.32V46.33a13.09,13.09,0,0,0,6.46-5.43c0,.21,0,.43,0,.64Z"/><circle class="cls-1" cx="33.75" cy="63.61" r="1.3"/><circle class="cls-1" cx="61.02" cy="63.61" r="1.3"/><circle class="cls-1" cx="33.75" cy="25.96" r="1.3"/><circle class="cls-1" cx="33.75" cy="31.16" r="1.3"/><circle class="cls-1" cx="62.31" cy="25.96" r="1.3"/><circle class="cls-1" cx="62.31" cy="31.16" r="1.3"/></g></g></svg>