<svg xmlns="http://www.w3.org/2000/svg" viewBox="0 0 75.75 75.75"><defs><style>.cls-1{fill:#303a39;}</style></defs><g id="Layer_2" data-name="Layer 2"><g id="Layer_1-2" data-name="Layer 1"><path class="cls-1" d="M71.91,58.8l-5.64-3.39a7.9,7.9,0,0,0-7.87-.15l-1.7-1.7,11.9-11.9A24.41,24.41,0,0,0,34.08,7.15L22.19,19l-1.7-1.7a7.89,7.89,0,0,0-.15-7.86L17,3.84A7.89,7.89,0,0,0,4.59,2.32L2.33,4.57A7.91,7.91,0,0,0,3.85,16.94l5.64,3.38a7.88,7.88,0,0,0,7.86.16l1.7,1.7L7.15,34.08A24.41,24.41,0,0,0,41.67,68.59L53.56,56.7l1.71,1.7a7.87,7.87,0,0,0,.16,7.85l3.38,5.64a7.9,7.9,0,0,0,12.36,1.53l2.26-2.26A7.9,7.9,0,0,0,71.91,58.8ZM16,16h0a3.47,3.47,0,0,1-4.23.52L6.14,13.13h0a3.46,3.46,0,0,1-.67-5.42L7.72,5.45a3.48,3.48,0,0,1,5.43.67l3.38,5.64A3.45,3.45,0,0,1,16,16ZM38.53,65.46A20,20,0,0,1,10.29,37.22l11.9-11.9,3.13,3.14-11,11h0c-6,6-7.06,16.7-.9,22.86s16.9,5.06,22.86-.9l11-11,3.13,3.13ZM56.69,34.75h0l0,0h0l-3.1,3.11L37.86,22.2l3-3,.15-.14ZM44.28,16.07c4.41-3,11.07-3.34,14.91.49s3.44,10.53.48,14.9Zm6.13,25-3.13,3.13L31.6,28.46l3.12-3.12ZM44.14,47.3,41,50.44,25.31,34.75l3.15-3.15ZM19,41l3.14-3.14L37.86,53.58l-1.57,1.56-1.57,1.57ZM31.43,59.7c-4.46,3-11.07,3.27-14.86-.52S13,48.78,16.05,44.31Zm22.12-9.27L50.41,47.3l.05.05-.05-.05,11-11c6-6,7.09-16.74.93-22.9s-16.93-5-22.89.93l-11,11-3.13-3.14L37.22,10.29A20,20,0,0,1,65.46,38.53ZM70.29,68,68,70.28a3.46,3.46,0,0,1-5.42-.67L59.23,64A3.46,3.46,0,0,1,64,59.22l5.65,3.38A3.46,3.46,0,0,1,70.29,68Z"/></g></g></svg>