<svg xmlns="http://www.w3.org/2000/svg" viewBox="0 0 82.05 87.96"><defs><style>.cls-1{fill:#303a39;}</style></defs><g id="Layer_2" data-name="Layer 2"><g id="Layer_1-2" data-name="Layer 1"><path class="cls-1" d="M8.79,77.7H7.33V66a1.47,1.47,0,0,0,0-2.93V51.33a1.47,1.47,0,0,0,0-2.93V33.74H8.79a1.38,1.38,0,0,0,1.47-1.46V4.44A4.33,4.33,0,0,0,5.86,0a4.32,4.32,0,0,0-4.39,4.4V32.28a1.38,1.38,0,0,0,1.46,1.46H4.4V48.4a1.47,1.47,0,1,0,0,2.93V63.05A1.47,1.47,0,1,0,4.4,66V77.7H2.93A2.94,2.94,0,0,0,0,80.63V82.1A2.94,2.94,0,0,0,2.93,85H4.4v1.46A1.38,1.38,0,0,0,5.86,88a1.39,1.39,0,0,0,1.47-1.47V85H8.79a2.94,2.94,0,0,0,2.93-2.93V80.63A2.94,2.94,0,0,0,8.79,77.7ZM4.4,30.81V28.47l2.93-2.93v5.27Zm0-9.67,2.93-2.93v3.22L4.4,24.37ZM5.86,3A1.39,1.39,0,0,1,7.33,4.44v9.67L4.4,17V4.44A1.38,1.38,0,0,1,5.86,3ZM8.79,82.1H2.93V80.63H8.79Z"/><path class="cls-1" d="M79.12,77.7H77.66V66a1.47,1.47,0,0,0,0-2.93V51.33a1.47,1.47,0,0,0,0-2.93V33.74h1.46a1.38,1.38,0,0,0,1.47-1.46V4.44a4.4,4.4,0,1,0-8.79,0V32.28a1.38,1.38,0,0,0,1.46,1.46h1.47V48.4a1.47,1.47,0,1,0,0,2.93V63.05a1.47,1.47,0,1,0,0,2.93V77.7H73.26a2.94,2.94,0,0,0-2.93,2.93V82.1A2.94,2.94,0,0,0,73.26,85h1.47v1.46a1.47,1.47,0,1,0,2.93,0V85h1.46a2.93,2.93,0,0,0,2.93-2.93V80.63A2.93,2.93,0,0,0,79.12,77.7ZM74.73,30.81V28.47l2.93-2.93v5.27Zm0-9.67,2.93-2.93v3.22l-2.93,2.94ZM76.19,3a1.39,1.39,0,0,1,1.47,1.47v9.67L74.73,17V4.44A1.38,1.38,0,0,1,76.19,3ZM79.12,82.1H73.26V80.63h5.86Z"/><path class="cls-1" d="M45.13,70.08l4.69,10.84a4.49,4.49,0,0,0,4.1,2.64,2.88,2.88,0,0,0,1.61-.44,1.45,1.45,0,0,0,.74-1.9,1.47,1.47,0,0,0-1.91-.74,1.44,1.44,0,0,1-1.9-.73L47.77,68.91a1.44,1.44,0,0,0-2.64,1.17Z"/><path class="cls-1" d="M61.83.77a8.61,8.61,0,0,0-9,1.13,1.85,1.85,0,0,0-.27.19,7.94,7.94,0,0,0-2.34,3.08L48.58,9.09a1.94,1.94,0,0,0-.23.33L45.13,17a2.86,2.86,0,0,0-.07.28l-4.17,9.61-7.38-17a1.26,1.26,0,0,0-.1-.36L31.65,5.46c-.15-.29-.31-.58-.48-.86a8.56,8.56,0,0,0-4.5-4,9,9,0,0,0-6.74.14,8.46,8.46,0,0,0-4.69,4.84,8.94,8.94,0,0,0,.15,6.74L19.54,22a1.44,1.44,0,0,0,.09.33l3.23,7.48a1,1,0,0,0,.24.45l8.16,18.91L19.78,75.65a8.7,8.7,0,0,0,4.54,11.57,10.14,10.14,0,0,0,3.52.74,7.85,7.85,0,0,0,3.22-.59,8.46,8.46,0,0,0,4.84-4.69l5-11.54,5,11.54A9,9,0,0,0,53.92,88a8.68,8.68,0,0,0,3.37-.74A8.42,8.42,0,0,0,62,82.39a8.94,8.94,0,0,0-.15-6.74L50.43,49.14,66.38,12.35a8.33,8.33,0,0,0,.14-6.74A8.46,8.46,0,0,0,61.83.77Zm-29,44.7L29,36.66,35.24,21.3l4,9.37Zm-4.1-39c0,.15.15.15.15.29l1.46,3.52L24.2,25.48l-1.63-3.77ZM25.81,29.23l6.24-15.17,1.5,3.57L27.42,33ZM21.1,3.41A6.68,6.68,0,0,1,23.44,3a5.91,5.91,0,0,1,2.2.44,7,7,0,0,1,.95.47l-5.66,14L18,11.18A5.93,5.93,0,0,1,21.1,3.41ZM49.29,14.82l.41-1,6.13,15.18-1.61,3.81-6-15.24ZM57.44,25l-6-15.09L52.9,6.49a3,3,0,0,1,.18-.36l6,15ZM33.26,81.36a6,6,0,0,1-7.76,3.08,5.76,5.76,0,0,1-3.08-7.62L34.09,49.88a2,2,0,0,0,.2-.31l5.27-12.31,6.86-15.83,6.15,15.38L47.7,48a2,2,0,0,0-.23.36L40.88,63.78Zm26.08-4.68A5.9,5.9,0,1,1,48.5,81.36l-6-13.9,6.32-14.6ZM63.74,11,60.89,17.6,55.37,3.75a5.93,5.93,0,0,1,3-.78,7.36,7.36,0,0,1,2.34.44A5.76,5.76,0,0,1,63.74,11Z"/><path class="cls-1" d="M42.05,57.63l4.11-9.38a4.47,4.47,0,0,0,0-3.37,4.36,4.36,0,0,0-8.06,0L34,54.26a3,3,0,0,0,1.62,3.81l2.63,1.17a3.4,3.4,0,0,0,1.18.29,2,2,0,0,0,1-.29A2.89,2.89,0,0,0,42.05,57.63Zm-5.27-2.35,4.1-9.38A1.28,1.28,0,0,1,42.2,45c.15,0,.29.14.59.14a1.83,1.83,0,0,1,.73.73,1.59,1.59,0,0,1,0,1.18l-4.1,9.37Z"/><path class="cls-1" d="M35.75,68.32a1.45,1.45,0,0,0-1.9.74L29.16,79.9a1.46,1.46,0,0,1-1.91.73,1.44,1.44,0,0,0-1.17,2.64,7.19,7.19,0,0,0,1.76.29,4.25,4.25,0,0,0,4-2.49l4.69-10.84A1.46,1.46,0,0,0,35.75,68.32Z"/></g></g></svg>