<svg xmlns="http://www.w3.org/2000/svg" viewBox="0 0 42.63 92.15"><defs><style>.cls-1{fill:#303a39;}</style></defs><g id="Layer_2" data-name="Layer 2"><g id="Layer_1-2" data-name="Layer 1"><g id="outline"><path class="cls-1" d="M.23,86.34a7.65,7.65,0,0,0,7.45,5.81H35a7.68,7.68,0,0,0,7.68-7.68,7.83,7.83,0,0,0-.23-1.86l-1.07-4.28.1-.39a23.8,23.8,0,0,0,0-11.5l-.1-.4.1-.39a23.8,23.8,0,0,0,0-11.5l-.11-.41a26.86,26.86,0,0,0,0-12.45V16.89A16.94,16.94,0,0,0,24.34,0H18.2A16.92,16.92,0,0,0,1.3,16.88l-.1.41a23.8,23.8,0,0,0,0,11.5l.1.39-.1.4a23.8,23.8,0,0,0,0,11.5l.1.39-.1.39a23.8,23.8,0,0,0,0,11.5l.1.4-.1.39a23.8,23.8,0,0,0,0,11.5l.1.4-.1.39a23.8,23.8,0,0,0,0,11.5l.1.39L.23,82.61A7.6,7.6,0,0,0,.23,86.34ZM31,23.74a3.8,3.8,0,0,0,1.39-3v-2.3h5.8v9.22H21.37l-4.89-3.4a28.34,28.34,0,0,1,11.31.19A3.81,3.81,0,0,0,31,23.74Zm3.64,16.9L15,44.33,6.35,20.94ZM4.09,55.29H38.54a20.79,20.79,0,0,1,0,9.22H4.09A20.5,20.5,0,0,1,4.09,55.29Zm0-24.57H6.68l3.39,9.21h-6a20.75,20.75,0,0,1,0-9.21ZM4.09,43h7.12l1.32,3.6a1.54,1.54,0,0,0,1.73,1L38.52,43a23.83,23.83,0,0,1,0,9.18H4.09A20.46,20.46,0,0,1,4.09,43Zm34.12-3.65L25.78,30.72H38.21ZM5.55,27.65H4.09a20.86,20.86,0,0,1-.51-5.34ZM4.09,67.58H38.54a20.79,20.79,0,0,1,0,9.22H4.09A20.5,20.5,0,0,1,4.09,67.58ZM29.33,20.73a.64.64,0,0,1-.88.71,31.51,31.51,0,0,0-13.6,0,.65.65,0,0,1-.84-.35.74.74,0,0,1,0-.36V12.6a.3.3,0,0,1,.21-.37.26.26,0,0,1,.23,0l.44.1a31.51,31.51,0,0,0,13.6,0,.66.66,0,0,1,.85.35.73.73,0,0,1,0,.36ZM10.9,20.37,8.12,18.43H10.9ZM39.42,85.59A4.61,4.61,0,0,1,35,89.08H7.68a4.59,4.59,0,0,1-4.47-5.72l.87-3.49H38.54l.88,3.49a4.67,4.67,0,0,1,0,2.23ZM18.2,3.07h6.14A13.87,13.87,0,0,1,38.12,15.36H32.41v-2.3a3.7,3.7,0,0,0-3.58-3.82,3.32,3.32,0,0,0-1,.11,28.53,28.53,0,0,1-12.27,0l-.44-.1A3.36,3.36,0,0,0,11,11.67a3.63,3.63,0,0,0-.1.93v2.76H4.46A13.85,13.85,0,0,1,18.2,3.07Z"/><path class="cls-1" d="M25.41,16.25a8.41,8.41,0,0,0-7.51,0A1.53,1.53,0,1,0,19.27,19h0A5.4,5.4,0,0,1,24,19a1.53,1.53,0,1,0,1.37-2.74Z"/></g></g></g></svg>