<svg xmlns="http://www.w3.org/2000/svg" viewBox="0 0 94.45 94.45"><defs><style>.cls-1{fill:#303a39;}</style></defs><g id="Layer_2" data-name="Layer 2"><g id="Layer_1-2" data-name="Layer 1"><path class="cls-1" d="M89.7,4.74a16.21,16.21,0,0,0-22.91,0l-62,62.05A16.2,16.2,0,1,0,27.65,89.7l62.05-62A16.19,16.19,0,0,0,89.7,4.74ZM87.47,25.43l-62,62.05A13.05,13.05,0,0,1,7,69L69,7A13,13,0,1,1,87.47,25.43Z"/><path class="cls-1" d="M65.9,36.79a1.45,1.45,0,0,0-2-2v0L59.71,30.6h0a1.44,1.44,0,0,0-2-2l0,0a4.51,4.51,0,0,0-6.36,0L49.21,30.6a4.51,4.51,0,0,0,0,6.36h0a1.45,1.45,0,0,0,.06,2,1.43,1.43,0,0,0,2,.06l0,0,4.13,4.14h0a1.45,1.45,0,0,0,2,2h0a4.5,4.5,0,0,0,6.37,0l2.07-2.06a4.52,4.52,0,0,0,0-6.37ZM51.44,34.73a1.35,1.35,0,0,1,0-1.91l2.07-2.06a1.35,1.35,0,0,1,1.91,0l-4,4Zm2.06,2.08,4-4L61.62,37l-4,4h0Zm10.19,4.13L61.62,43a1.35,1.35,0,0,1-1.91,0l4-4h0A1.35,1.35,0,0,1,63.69,40.94Z"/><path class="cls-1" d="M45.21,57.47a1.44,1.44,0,0,0-2-2l0,0L39,51.28h0a1.45,1.45,0,0,0-2-2v0a4.51,4.51,0,0,0-6.36,0l-2.07,2.07a4.49,4.49,0,0,0,0,6.36l0,0a1.44,1.44,0,0,0,2,2v0l4.13,4.14h0a1.45,1.45,0,0,0,2,2v0a4.51,4.51,0,0,0,6.36,0l2.07-2.07a4.49,4.49,0,0,0,0-6.36Zm-14.46-2a1.36,1.36,0,0,1,0-1.91h0l2.07-2.07a1.35,1.35,0,0,1,1.91,0l-4,4Zm2.07,2.07,4-4,4.14,4.13-4,4h0ZM43,61.62h0l-2.07,2.07a1.35,1.35,0,0,1-1.91,0l4-4A1.36,1.36,0,0,1,43,61.62Z"/><path class="cls-1" d="M74,16.28a1.56,1.56,0,0,0,1.12.45.77.77,0,0,0,.3,0,1.67,1.67,0,0,0,.3-.08l.26-.14a1.16,1.16,0,0,0,.24-.2,1.5,1.5,0,0,0,.35-.51,1.79,1.79,0,0,0,.12-.61,1.53,1.53,0,0,0-.12-.6,1.46,1.46,0,0,0-.35-.5,1.21,1.21,0,0,0-.24-.21l-.26-.14-.3-.09a1.59,1.59,0,0,0-1.42.44,1.46,1.46,0,0,0-.46,1.1,1.78,1.78,0,0,0,.11.61A1.6,1.6,0,0,0,74,16.28Z"/><path class="cls-1" d="M72.35,19.8a1.38,1.38,0,0,0,.29-.08,1.71,1.71,0,0,0,.27-.14.91.91,0,0,0,.24-.2,1.35,1.35,0,0,0,.34-.51,1.42,1.42,0,0,0,.13-.61,1.54,1.54,0,0,0-.13-.6,1.31,1.31,0,0,0-.34-.5,1.21,1.21,0,0,0-.24-.21l-.27-.14-.29-.09a1.71,1.71,0,0,0-.9.09,1.59,1.59,0,0,0-1,1.45,1.78,1.78,0,0,0,.11.61,2,2,0,0,0,.35.51,1.31,1.31,0,0,0,.52.34,1.36,1.36,0,0,0,.6.11A.77.77,0,0,0,72.35,19.8Z"/><path class="cls-1" d="M69.81,20.05l-.27-.14-.3-.08a1.57,1.57,0,0,0-1.41.43,1.46,1.46,0,0,0-.35.5,1.88,1.88,0,0,0-.11.62,1.71,1.71,0,0,0,.11.59,1.6,1.6,0,0,0,.35.51,1.51,1.51,0,0,0,1.12.45,1.38,1.38,0,0,0,.29,0l.3-.1a1.71,1.71,0,0,0,.27-.14.91.91,0,0,0,.24-.2,1.54,1.54,0,0,0,.47-1.1,1.57,1.57,0,0,0-.47-1.12A1.21,1.21,0,0,0,69.81,20.05Z"/><path class="cls-1" d="M80.15,18a.94.94,0,0,0-.26-.14,1.57,1.57,0,0,0-1.72.35,1.46,1.46,0,0,0-.35.5,1.77,1.77,0,0,0,0,1.2,1.37,1.37,0,0,0,.35.52,1.67,1.67,0,0,0,.5.33,1.71,1.71,0,0,0,.3.09,1.73,1.73,0,0,0,.32,0,1.4,1.4,0,0,0,.6-.12,1,1,0,0,0,.26-.15,1.08,1.08,0,0,0,.24-.18,1.58,1.58,0,0,0,.47-1.12,1.5,1.5,0,0,0-.47-1.1A1.21,1.21,0,0,0,80.15,18Z"/><path class="cls-1" d="M77.63,21.8a2.29,2.29,0,0,0-.14-.27.74.74,0,0,0-.2-.23,1.21,1.21,0,0,0-.24-.21L76.78,21l-.29-.09a1.59,1.59,0,0,0-1.42.44.93.93,0,0,0-.21.23l-.14.27c0,.1-.06.19-.09.3a1.53,1.53,0,0,0,0,.3,1.58,1.58,0,0,0,.47,1.12,1.55,1.55,0,0,0,1.12.45.77.77,0,0,0,.3,0,1.38,1.38,0,0,0,.29-.08,1.17,1.17,0,0,0,.27-.15,1.12,1.12,0,0,0,.24-.19,1.58,1.58,0,0,0,.47-1.12,1.53,1.53,0,0,0,0-.3A2.64,2.64,0,0,0,77.63,21.8Z"/><path class="cls-1" d="M74,24.19l-.27-.14-.3-.09a2.08,2.08,0,0,0-.61,0l-.3.09-.27.14a1.15,1.15,0,0,0-.23.21,1.52,1.52,0,0,0-.47,1.1,1.55,1.55,0,0,0,0,.31,1.32,1.32,0,0,0,.09.3,1.71,1.71,0,0,0,.14.27,1.21,1.21,0,0,0,.21.24,1.58,1.58,0,0,0,.5.34,1.67,1.67,0,0,0,.3.08.77.77,0,0,0,.3,0,.8.8,0,0,0,.31,0,1.32,1.32,0,0,0,.3-.08,1.75,1.75,0,0,0,.51-.34,1.12,1.12,0,0,0,.19-.24,1.73,1.73,0,0,0,.15-.27,1.32,1.32,0,0,0,.08-.3.8.8,0,0,0,0-.31,1.52,1.52,0,0,0-.45-1.1Z"/><path class="cls-1" d="M21.38,70.52a1.36,1.36,0,0,0,.29,0l.3-.1a1.71,1.71,0,0,0,.27-.14.91.91,0,0,0,.24-.2,1.59,1.59,0,0,0,0-2.22,1.61,1.61,0,0,0-2.22,0,1.58,1.58,0,0,0,1.12,2.69Z"/><path class="cls-1" d="M18.26,73.62a1.57,1.57,0,0,0,1.12-.46,1.52,1.52,0,0,0,.45-1.11.85.85,0,0,0,0-.32,1.67,1.67,0,0,0-.08-.3c0-.09-.09-.17-.14-.26a1.59,1.59,0,0,0-.2-.24,1.63,1.63,0,0,0-2.22,0,1.54,1.54,0,0,0-.48,1.12,1.59,1.59,0,0,0,1.58,1.57Z"/><path class="cls-1" d="M16,73.84l-.27-.16-.3-.08a1.67,1.67,0,0,0-.91.08,1.8,1.8,0,0,0-.5.35,1.53,1.53,0,0,0-.35,1.72,1.64,1.64,0,0,0,.35.52,1.6,1.6,0,0,0,1.1.45,1.63,1.63,0,0,0,.31,0,1.32,1.32,0,0,0,.3-.09,1.17,1.17,0,0,0,.27-.15l.24-.18a1.94,1.94,0,0,0,.34-.52A1.62,1.62,0,0,0,16.28,74Z"/><path class="cls-1" d="M24.9,71.62a1.46,1.46,0,0,0-.5.35,1.52,1.52,0,0,0-.47,1.1,1.58,1.58,0,0,0,.12.61,1.41,1.41,0,0,0,.35.51,1.58,1.58,0,0,0,.5.34,1.39,1.39,0,0,0,.6.11.8.8,0,0,0,.31,0,1.32,1.32,0,0,0,.3-.08,1.71,1.71,0,0,0,.27-.14,1.59,1.59,0,0,0,.24-.2,1.75,1.75,0,0,0,.34-.51,1.41,1.41,0,0,0,.11-.61,1.52,1.52,0,0,0-.45-1.1A1.61,1.61,0,0,0,24.9,71.62Z"/><path class="cls-1" d="M22.1,74.63l-.3.09-.27.14a.93.93,0,0,0-.23.21,1.52,1.52,0,0,0,0,2.22.74.74,0,0,0,.23.2l.27.14.3.1a1.53,1.53,0,0,0,.3,0,1.63,1.63,0,0,0,.31,0l.29-.1.28-.14.24-.2a1.59,1.59,0,0,0,0-2.22A1.62,1.62,0,0,0,22.1,74.63Z"/><path class="cls-1" d="M19.91,77.83a1.55,1.55,0,0,0-1.71.34h0a1.62,1.62,0,0,0-.48,1.12c0,.1,0,.2,0,.3a.86.86,0,0,0,.09.3.94.94,0,0,0,.14.26,1.21,1.21,0,0,0,.21.24,1.5,1.5,0,0,0,1.1.47,1.63,1.63,0,0,0,.31,0l.29-.09.28-.15.23-.2a.88.88,0,0,0,.19-.24,1,1,0,0,0,.15-.26,1.14,1.14,0,0,0,.09-.3.77.77,0,0,0,0-.3A1.55,1.55,0,0,0,19.91,77.83Z"/></g></g></svg>