<svg xmlns="http://www.w3.org/2000/svg" viewBox="0 0 77.89 77.9"><defs><style>.cls-1{fill:#303a39;}</style></defs><g id="Layer_2" data-name="Layer 2"><g id="Layer_1-2" data-name="Layer 1"><path class="cls-1" d="M77.4,69.09a1.3,1.3,0,0,0-1.82.2L71.89,73.9c-3.14-9.44-15.58-44.58-30-54.23l4.47-4.47a1.3,1.3,0,1,0-1.83-1.84l-4.28,4.28V10.39H58.42L51.5,5.19,58.42,0H37.65V17.64l-4.28-4.28a1.3,1.3,0,0,0-1.83,1.84L36,19.67C21.58,29.32,9.14,64.46,6,73.9L2.31,69.29a1.3,1.3,0,0,0-2,1.62l5.2,6.49a.5.5,0,0,0,.08.07,1.71,1.71,0,0,0,.26.21l.2.11.08,0a1.32,1.32,0,0,0,.39.06h0a1.59,1.59,0,0,0,.38-.07A.67.67,0,0,0,7,77.76a1.23,1.23,0,0,0,.25-.14h0s0-.06.06-.08a1.09,1.09,0,0,0,.22-.26,1.19,1.19,0,0,0,.08-.16s0-.08.07-.13C7.87,76.53,20.94,35.18,35.8,23L9.63,77.89H68.27L42.08,23C57,35.18,70,76.53,70.16,77c0,0,0,.08.07.13a.6.6,0,0,0,.08.16,1.33,1.33,0,0,0,.21.26s0,.06.07.08h0a1,1,0,0,0,.25.14.67.67,0,0,0,.12.06,1.59,1.59,0,0,0,.38.07h0a1.32,1.32,0,0,0,.39-.06l.08,0,.2-.11a1.71,1.71,0,0,0,.26-.21.5.5,0,0,0,.08-.07l5.2-6.49A1.3,1.3,0,0,0,77.4,69.09ZM50.63,7.79H40.24V2.6H50.63L47.17,5.19Zm.06,54.39-2.56,9.58L41.54,49.11l6.7,5.48A7.38,7.38,0,0,1,50.69,62.18ZM31.74,75.26,39.1,50l7.36,25.27Zm-1.68-3.51-2.55-9.57A7.38,7.38,0,0,1,30,54.59l6.72-5.49ZM61,75.3a1.3,1.3,0,1,0-2.59,0h-2.6a1.3,1.3,0,0,0-2.6,0H49.87l1.75-6.56a1.07,1.07,0,0,0,.31.06,1.29,1.29,0,0,0,1.29-1.29,1.28,1.28,0,0,0-.94-1.23l.91-3.43a10,10,0,0,0-3.31-10.27l-9.78-8-.18-.37-1.69,0-.18.38-9.73,8A10,10,0,0,0,25,62.85l.9,3.37a1.29,1.29,0,1,0,.65,2.43l1.77,6.65H24.66a1.3,1.3,0,1,0-2.59,0h-2.6a1.3,1.3,0,1,0-2.59,0H13.74l.85-1.79a1.28,1.28,0,0,0,1,.49,1.3,1.3,0,0,0,0-2.6l2.49-5.21.08,0a1.3,1.3,0,0,0,1.3-1.3,1.31,1.31,0,0,0-.35-.88l.52-1.11A1.29,1.29,0,1,0,20.77,61a2,2,0,0,0-.24,0L38.94,22.49,57.36,61.06a2,2,0,0,0-.24,0,1.3,1.3,0,1,0,0,2.59,1.27,1.27,0,0,0,1.12-.69L58.77,64a1.31,1.31,0,0,0-.35.88,1.3,1.3,0,0,0,1.3,1.3l.08,0,2.49,5.21a1.3,1.3,0,0,0,0,2.6,1.29,1.29,0,0,0,1-.49l.85,1.79Z"/><circle class="cls-1" cx="20.77" cy="72.7" r="1.3"/><circle class="cls-1" cx="20.77" cy="67.51" r="1.3"/><circle class="cls-1" cx="23.37" cy="64.91" r="1.3"/><circle class="cls-1" cx="25.96" cy="72.7" r="1.3"/><circle class="cls-1" cx="23.37" cy="70.1" r="1.3"/><circle class="cls-1" cx="18.17" cy="70.1" r="1.3"/><circle class="cls-1" cx="57.12" cy="72.7" r="1.3"/><circle class="cls-1" cx="57.12" cy="67.51" r="1.3"/><circle class="cls-1" cx="54.52" cy="64.91" r="1.3"/><circle class="cls-1" cx="51.93" cy="72.7" r="1.3"/><circle class="cls-1" cx="54.52" cy="70.1" r="1.3"/><circle class="cls-1" cx="59.72" cy="70.1" r="1.3"/></g></g></svg>